<svg width="25" height="25" viewBox="0 0 25 25" fill="none" xmlns="http://www.w3.org/2000/svg">
<path d="M15.525 22.75H9.52502C4.09502 22.75 1.77502 20.43 1.77502 15V9C1.77502 3.57 4.09502 1.25 9.52502 1.25H15.525C20.955 1.25 23.275 3.57 23.275 9V15C23.275 20.43 20.955 22.75 15.525 22.75ZM9.52502 2.75C4.91502 2.75 3.27502 4.39 3.27502 9V15C3.27502 19.61 4.91502 21.25 9.52502 21.25H15.525C20.135 21.25 21.775 19.61 21.775 15V9C21.775 4.39 20.135 2.75 15.525 2.75H9.52502Z" fill="white"/>
<path d="M9.52502 10.75C8.00502 10.75 6.77502 9.52 6.77502 8C6.77502 6.48 8.00502 5.25 9.52502 5.25C11.045 5.25 12.275 6.48 12.275 8C12.275 9.52 11.045 10.75 9.52502 10.75ZM9.52502 6.75C8.83502 6.75 8.27502 7.31 8.27502 8C8.27502 8.69 8.83502 9.25 9.52502 9.25C10.215 9.25 10.775 8.69 10.775 8C10.775 7.31 10.215 6.75 9.52502 6.75Z" fill="white"/>
<path d="M3.19504 19.7001C2.95504 19.7001 2.71504 19.5801 2.57504 19.3701C2.34504 19.0301 2.43504 18.5601 2.78504 18.3301L7.71504 15.0201C8.79504 14.2901 10.285 14.3801 11.265 15.2101L11.595 15.5001C12.095 15.9301 12.945 15.9301 13.435 15.5001L17.595 11.9301C18.655 11.0201 20.325 11.0201 21.395 11.9301L23.025 13.3301C23.335 13.6001 23.375 14.0701 23.105 14.3901C22.835 14.7001 22.365 14.7401 22.045 14.4701L20.415 13.0701C19.915 12.6401 19.065 12.6401 18.565 13.0701L14.405 16.6401C13.345 17.5501 11.675 17.5501 10.605 16.6401L10.275 16.3501C9.81504 15.9601 9.05504 15.9201 8.54504 16.2701L3.61504 19.5801C3.48504 19.6601 3.33504 19.7001 3.19504 19.7001Z" fill="white"/>
</svg>
