<svg width="25" height="25" viewBox="0 0 25 25" fill="none" xmlns="http://www.w3.org/2000/svg">
<path d="M12.525 14.1699C10.395 14.1699 8.65503 12.4399 8.65503 10.2999C8.65503 8.15994 10.395 6.43994 12.525 6.43994C14.655 6.43994 16.395 8.16994 16.395 10.3099C16.395 12.4499 14.655 14.1699 12.525 14.1699ZM12.525 7.93994C11.225 7.93994 10.155 8.99994 10.155 10.3099C10.155 11.6199 11.215 12.6799 12.525 12.6799C13.835 12.6799 14.895 11.6199 14.895 10.3099C14.895 8.99994 13.825 7.93994 12.525 7.93994Z" fill="white"/>
<path d="M12.5251 22.76C11.0451 22.76 9.55508 22.2 8.39508 21.09C5.44508 18.25 2.18508 13.72 3.41508 8.33C4.52508 3.44 8.79508 1.25 12.5251 1.25C12.5251 1.25 12.5251 1.25 12.5351 1.25C16.2651 1.25 20.5351 3.44 21.6451 8.34C22.8651 13.73 19.6051 18.25 16.6551 21.09C15.4951 22.2 14.0051 22.76 12.5251 22.76ZM12.5251 2.75C9.61508 2.75 5.87508 4.3 4.88508 8.66C3.80508 13.37 6.76508 17.43 9.44508 20C11.1751 21.67 13.8851 21.67 15.6151 20C18.2851 17.43 21.2451 13.37 20.1851 8.66C19.1851 4.3 15.4351 2.75 12.5251 2.75Z" fill="white"/>
</svg>
