<svg width="25" height="25" viewBox="0 0 25 25" fill="none" xmlns="http://www.w3.org/2000/svg">
<path d="M12.525 21.6501C12.215 21.6501 11.915 21.6101 11.665 21.5201C7.84503 20.2101 1.77502 15.5601 1.77502 8.6901C1.77502 5.1901 4.60502 2.3501 8.08502 2.3501C9.77502 2.3501 11.355 3.0101 12.525 4.1901C13.695 3.0101 15.275 2.3501 16.965 2.3501C20.445 2.3501 23.275 5.2001 23.275 8.6901C23.275 15.5701 17.205 20.2101 13.385 21.5201C13.135 21.6101 12.835 21.6501 12.525 21.6501ZM8.08502 3.8501C5.43502 3.8501 3.27502 6.0201 3.27502 8.6901C3.27502 15.5201 9.84502 19.3201 12.155 20.1101C12.335 20.1701 12.725 20.1701 12.905 20.1101C15.205 19.3201 21.785 15.5301 21.785 8.6901C21.785 6.0201 19.625 3.8501 16.975 3.8501C15.455 3.8501 14.045 4.5601 13.135 5.7901C12.855 6.1701 12.215 6.1701 11.935 5.7901C11.005 4.5501 9.60502 3.8501 8.08502 3.8501Z" fill="white"/>
</svg>
