<svg width="24" height="25" viewBox="0 0 24 25" fill="none" xmlns="http://www.w3.org/2000/svg">
<path d="M17.9996 10.75C17.5896 10.75 17.2496 10.41 17.2496 10V8C17.2496 4.85 16.3596 2.75 11.9996 2.75C7.63963 2.75 6.74963 4.85 6.74963 8V10C6.74963 10.41 6.40963 10.75 5.99963 10.75C5.58963 10.75 5.24963 10.41 5.24963 10V8C5.24963 5.1 5.94963 1.25 11.9996 1.25C18.0496 1.25 18.7496 5.1 18.7496 8V10C18.7496 10.41 18.4096 10.75 17.9996 10.75Z" fill="white"/>
<path d="M11.9996 19.25C10.2096 19.25 8.74963 17.79 8.74963 16C8.74963 14.21 10.2096 12.75 11.9996 12.75C13.7896 12.75 15.2496 14.21 15.2496 16C15.2496 17.79 13.7896 19.25 11.9996 19.25ZM11.9996 14.25C11.0396 14.25 10.2496 15.04 10.2496 16C10.2496 16.96 11.0396 17.75 11.9996 17.75C12.9596 17.75 13.7496 16.96 13.7496 16C13.7496 15.04 12.9596 14.25 11.9996 14.25Z" fill="white"/>
<path d="M16.9996 22.75H6.99963C2.58963 22.75 1.24963 21.41 1.24963 17V15C1.24963 10.59 2.58963 9.25 6.99963 9.25H16.9996C21.4096 9.25 22.7496 10.59 22.7496 15V17C22.7496 21.41 21.4096 22.75 16.9996 22.75ZM6.99963 10.75C3.41963 10.75 2.74963 11.43 2.74963 15V17C2.74963 20.57 3.41963 21.25 6.99963 21.25H16.9996C20.5796 21.25 21.2496 20.57 21.2496 17V15C21.2496 11.43 20.5796 10.75 16.9996 10.75H6.99963Z" fill="white"/>
</svg>
